<svg xmlns="http://www.w3.org/2000/svg" xmlns:xlink="http://www.w3.org/1999/xlink" viewBox="0,0,256,256" width="64px" height="64px" fill-rule="nonzero"><g fill="#a9a9a9" fill-rule="nonzero" stroke="none" stroke-width="1" stroke-linecap="butt" stroke-linejoin="miter" stroke-miterlimit="10" stroke-dasharray="" stroke-dashoffset="0" font-family="none" font-weight="none" font-size="none" text-anchor="none" style="mix-blend-mode: normal"><g transform="scale(4,4)"><path d="M32,6c-14.359,0 -26,11.641 -26,26c0,14.359 11.641,26 26,26c14.359,0 26,-11.641 26,-26c0,-14.359 -11.641,-26 -26,-26zM32.021,16c1.534,0 2.979,1.346 2.979,2.981c0,1.746 -1.445,3.019 -2.979,3.019c-1.796,0 -3.021,-1.273 -3.021,-3.019c0,-1.635 1.225,-2.981 3.021,-2.981zM39,47h-5h-4h-5v-3l5,-1v-13h-4v-3l8,-1v17l5,1z"></path></g></g></svg>